HIERARCHY
ROOT newVegas:Hips
{
	OFFSET 0.000000 96.479958 0.000000
	CHANNELS 6 Xposition Yposition Zposition Xrotation Yrotation Zrotation
	JOINT newVegas:Pelvis
	{
		OFFSET 0.000000 0.000000 0.000000
		CHANNELS 3 Xrotation Yrotation Zrotation
		JOINT newVegas:LeftUpLeg
		{
			OFFSET 18.735201 -5.666702 -4.541200
			CHANNELS 3 Xrotation Yrotation Zrotation
			JOINT newVegas:LeftLeg
			{
				OFFSET -0.021200 -31.938179 0.493100
				CHANNELS 3 Xrotation Yrotation Zrotation
				JOINT newVegas:LeftFoot
				{
					OFFSET 0.021200 -31.938179 -4.336299
					CHANNELS 3 Xrotation Yrotation Zrotation
					JOINT newVegas:LeftToeBase
					{
						OFFSET 0.943001 -26.722000 15.023500
						CHANNELS 3 Xrotation Yrotation Zrotation
						End Site
						{
							OFFSET 0.000000 30.670183 0.000000
						}
					}
				}
				JOINT newVegas:Left_PantLeg
				{
					OFFSET 0.663870 -9.044666 -1.108900
					CHANNELS 3 Xrotation Yrotation Zrotation
					End Site
					{
						OFFSET 1.415995 20.635357 0.000000
					}
				}
			}
		}
		JOINT newVegas:RightUpLeg
		{
			OFFSET -18.735201 -5.666702 -4.541200
			CHANNELS 3 Xrotation Yrotation Zrotation
			JOINT newVegas:RightLeg
			{
				OFFSET 0.018946 -31.938133 0.493100
				CHANNELS 3 Xrotation Yrotation Zrotation
				JOINT newVegas:RightFoot
				{
					OFFSET -0.018946 -31.938126 -4.336299
					CHANNELS 3 Xrotation Yrotation Zrotation
					JOINT newVegas:RightToeBase
					{
						OFFSET -0.943001 -26.722004 15.023500
						CHANNELS 3 Xrotation Yrotation Zrotation
						End Site
						{
							OFFSET 0.000000 30.670187 0.000000
						}
					}
				}
				JOINT newVegas:Right_PantLeg
				{
					OFFSET -0.661674 -9.044716 -1.108900
					CHANNELS 3 Xrotation Yrotation Zrotation
					End Site
					{
						OFFSET -1.415958 20.635269 0.000000
					}
				}
			}
		}
	}
	JOINT newVegas:Spine
	{
		OFFSET 0.000000 10.199997 -0.299500
		CHANNELS 3 Xrotation Yrotation Zrotation
		JOINT newVegas:Spine1
		{
			OFFSET 0.000000 11.900002 -1.516600
			CHANNELS 3 Xrotation Yrotation Zrotation
			JOINT newVegas:Spine2
			{
				OFFSET 0.000000 13.600006 -2.842500
				CHANNELS 3 Xrotation Yrotation Zrotation
				JOINT newVegas:Neck
				{
					OFFSET 0.000000 9.624100 -2.890100
					CHANNELS 3 Xrotation Yrotation Zrotation
					JOINT newVegas:Head
					{
						OFFSET 0.000000 14.068802 -1.351900
						CHANNELS 3 Xrotation Yrotation Zrotation
						JOINT newVegas:Hair_Back
						{
							OFFSET 0.000000 3.231903 -17.524799
							CHANNELS 3 Xrotation Yrotation Zrotation
							End Site
							{
								OFFSET 0.000000 19.849884 0.000000
							}
						}
						JOINT newVegas:Hair_Front
						{
							OFFSET 0.000000 31.260406 4.573800
							CHANNELS 3 Xrotation Yrotation Zrotation
							JOINT newVegas:Hair_Front1
							{
								OFFSET 0.000000 2.284103 11.993300
								CHANNELS 3 Xrotation Yrotation Zrotation
								JOINT newVegas:Hair_Front2
								{
									OFFSET 0.000000 2.284103 11.993300
									CHANNELS 3 Xrotation Yrotation Zrotation
									End Site
									{
										OFFSET 0.000000 12.208862 0.000000
									}
								}
							}
						}
						JOINT newVegas:Jowel
						{
							OFFSET 0.000000 -7.458206 6.864100
							CHANNELS 3 Xrotation Yrotation Zrotation
							End Site
							{
								OFFSET 0.000000 19.849884 0.000000
							}
						}
					}
				}
				JOINT newVegas:LeftShoulder
				{
					OFFSET 15.263000 10.923401 -0.547700
					CHANNELS 3 Xrotation Yrotation Zrotation
					JOINT newVegas:LeftArm
					{
						OFFSET 25.438599 -2.830597 -13.032500
						CHANNELS 3 Xrotation Yrotation Zrotation
						JOINT newVegas:LeftForeArm
						{
							OFFSET 29.960503 0.000000 0.000000
							CHANNELS 3 Xrotation Yrotation Zrotation
							JOINT newVegas:LeftHand
							{
								OFFSET 27.849251 0.000000 0.000000
								CHANNELS 3 Xrotation Yrotation Zrotation
								JOINT newVegas:LeftHandThumb1
								{
									OFFSET 4.487587 -3.305161 6.305391
									CHANNELS 3 Xrotation Yrotation Zrotation
									JOINT newVegas:LeftHandThumb2
									{
										OFFSET 5.480453 -3.164139 3.164143
										CHANNELS 3 Xrotation Yrotation Zrotation
										JOINT newVegas:LeftHandThumb3
										{
											OFFSET 5.159721 -2.978973 2.978967
											CHANNELS 3 Xrotation Yrotation Zrotation
											End Site
											{
												OFFSET 2.494507 5.926697 1.738678
											}
										}
									}
								}
								JOINT newVegas:LeftHandIndex1
								{
									OFFSET 18.578728 -0.527832 5.208049
									CHANNELS 3 Xrotation Yrotation Zrotation
									JOINT newVegas:LeftHandIndex2
									{
										OFFSET 3.192009 0.000000 0.000000
										CHANNELS 3 Xrotation Yrotation Zrotation
										JOINT newVegas:LeftHandIndex3
										{
											OFFSET 3.835129 0.000000 0.000000
											CHANNELS 3 Xrotation Yrotation Zrotation
											End Site
											{
												OFFSET -0.034599 3.816971 0.371180
											}
										}
									}
								}
								JOINT newVegas:LeftHandMiddle1
								{
									OFFSET 18.476105 0.000000 0.000000
									CHANNELS 3 Xrotation Yrotation Zrotation
									JOINT newVegas:LeftHandMiddle2
									{
										OFFSET 3.324875 0.000000 0.000000
										CHANNELS 3 Xrotation Yrotation Zrotation
										JOINT newVegas:LeftHandMiddle3
										{
											OFFSET 4.596550 0.000000 0.000000
											CHANNELS 3 Xrotation Yrotation Zrotation
											End Site
											{
												OFFSET 0.057701 4.578827 0.399218
											}
										}
									}
								}
								JOINT newVegas:LeftHandRing1
								{
									OFFSET 17.732719 0.121887 -4.201567
									CHANNELS 3 Xrotation Yrotation Zrotation
									JOINT newVegas:LeftHandRing2
									{
										OFFSET 2.733170 0.000000 0.000000
										CHANNELS 3 Xrotation Yrotation Zrotation
										JOINT newVegas:LeftHandRing3
										{
											OFFSET 3.178268 0.000000 0.000000
											CHANNELS 3 Xrotation Yrotation Zrotation
											End Site
											{
												OFFSET 0.119102 3.170624 0.185394
											}
										}
									}
								}
								JOINT newVegas:LeftHandPinky1
								{
									OFFSET 15.989624 -0.606689 -7.535461
									CHANNELS 3 Xrotation Yrotation Zrotation
									JOINT newVegas:LeftHandPinky2
									{
										OFFSET 2.538986 0.000000 0.000000
										CHANNELS 3 Xrotation Yrotation Zrotation
										JOINT newVegas:LeftHandPinky3
										{
											OFFSET 2.593102 0.000000 0.000000
											CHANNELS 3 Xrotation Yrotation Zrotation
											End Site
											{
												OFFSET -0.150902 2.584198 0.152708
											}
										}
									}
								}
							}
							JOINT newVegas:Left_Sleeve
							{
								OFFSET 0.267448 -0.649796 0.577675
								CHANNELS 3 Xrotation Yrotation Zrotation
								End Site
								{
									OFFSET 0.000000 15.991241 0.000000
								}
							}
							JOINT newVegas:Left_CapeC
							{
								OFFSET 15.715958 -8.608795 -6.935905
								CHANNELS 3 Xrotation Yrotation Zrotation
								JOINT newVegas:Left_CapeC1
								{
									OFFSET 0.000000 -8.688499 0.000000
									CHANNELS 3 Xrotation Yrotation Zrotation
									End Site
									{
										OFFSET 0.000000 8.688499 0.000000
									}
								}
							}
						}
						JOINT newVegas:Left_CapeB
						{
							OFFSET 26.118385 -8.608795 -7.079235
							CHANNELS 3 Xrotation Yrotation Zrotation
							JOINT newVegas:Left_CapeB1
							{
								OFFSET 0.000000 -8.688499 0.000000
								CHANNELS 3 Xrotation Yrotation Zrotation
								End Site
								{
									OFFSET 0.000000 8.688499 0.000000
								}
							}
						}
						JOINT newVegas:Left_CapeA
						{
							OFFSET 5.115639 -8.608795 -10.395809
							CHANNELS 3 Xrotation Yrotation Zrotation
							JOINT newVegas:Left_CapeA1
							{
								OFFSET 0.000000 -8.688499 0.000000
								CHANNELS 3 Xrotation Yrotation Zrotation
								End Site
								{
									OFFSET 0.000000 8.688499 0.000000
								}
							}
						}
					}
				}
				JOINT newVegas:RightShoulder
				{
					OFFSET -15.263000 10.923401 -0.547700
					CHANNELS 3 Xrotation Yrotation Zrotation
					JOINT newVegas:RightArm
					{
						OFFSET -25.438599 -2.830597 -13.032500
						CHANNELS 3 Xrotation Yrotation Zrotation
						JOINT newVegas:RightForeArm
						{
							OFFSET -29.960503 0.000000 0.000000
							CHANNELS 3 Xrotation Yrotation Zrotation
							JOINT newVegas:RightHand
							{
								OFFSET -27.849251 0.000000 0.000000
								CHANNELS 3 Xrotation Yrotation Zrotation
								JOINT newVegas:RightHandThumb1
								{
									OFFSET -4.487587 -3.305161 6.305391
									CHANNELS 3 Xrotation Yrotation Zrotation
									JOINT newVegas:RightHandThumb2
									{
										OFFSET -5.480453 -3.164139 3.164143
										CHANNELS 3 Xrotation Yrotation Zrotation
										JOINT newVegas:RightHandThumb3
										{
											OFFSET -5.159721 -2.978973 2.978967
											CHANNELS 3 Xrotation Yrotation Zrotation
											End Site
											{
												OFFSET -2.494507 5.926697 1.738678
											}
										}
									}
								}
								JOINT newVegas:RightHandIndex1
								{
									OFFSET -18.578728 -0.527832 5.208049
									CHANNELS 3 Xrotation Yrotation Zrotation
									JOINT newVegas:RightHandIndex2
									{
										OFFSET -3.192009 0.000000 0.000000
										CHANNELS 3 Xrotation Yrotation Zrotation
										JOINT newVegas:RightHandIndex3
										{
											OFFSET -3.835129 0.000000 0.000000
											CHANNELS 3 Xrotation Yrotation Zrotation
											End Site
											{
												OFFSET 0.034599 3.816971 0.371180
											}
										}
									}
								}
								JOINT newVegas:RightHandMiddle1
								{
									OFFSET -18.476105 0.000000 0.000000
									CHANNELS 3 Xrotation Yrotation Zrotation
									JOINT newVegas:RightHandMiddle2
									{
										OFFSET -3.324875 0.000000 0.000000
										CHANNELS 3 Xrotation Yrotation Zrotation
										JOINT newVegas:RightHandMiddle3
										{
											OFFSET -4.596550 0.000000 0.000000
											CHANNELS 3 Xrotation Yrotation Zrotation
											End Site
											{
												OFFSET -0.057701 4.578827 0.399218
											}
										}
									}
								}
								JOINT newVegas:RightHandRing1
								{
									OFFSET -17.732719 0.121887 -4.201567
									CHANNELS 3 Xrotation Yrotation Zrotation
									JOINT newVegas:RightHandRing2
									{
										OFFSET -2.733170 0.000000 0.000000
										CHANNELS 3 Xrotation Yrotation Zrotation
										JOINT newVegas:RightHandRing3
										{
											OFFSET -3.178268 0.000000 0.000000
											CHANNELS 3 Xrotation Yrotation Zrotation
											End Site
											{
												OFFSET -0.119102 3.170624 0.185394
											}
										}
									}
								}
								JOINT newVegas:RightHandPinky1
								{
									OFFSET -15.989624 -0.606689 -7.535461
									CHANNELS 3 Xrotation Yrotation Zrotation
									JOINT newVegas:RightHandPinky2
									{
										OFFSET -2.538986 0.000000 0.000000
										CHANNELS 3 Xrotation Yrotation Zrotation
										JOINT newVegas:RightHandPinky3
										{
											OFFSET -2.593102 0.000000 0.000000
											CHANNELS 3 Xrotation Yrotation Zrotation
											End Site
											{
												OFFSET 0.150902 2.584198 0.152708
											}
										}
									}
								}
							}
							JOINT newVegas:Right_CapeC
							{
								OFFSET -15.715958 -8.608795 -6.935905
								CHANNELS 3 Xrotation Yrotation Zrotation
								JOINT newVegas:Right_CapeC1
								{
									OFFSET 0.000000 -8.688499 0.000000
									CHANNELS 3 Xrotation Yrotation Zrotation
									End Site
									{
										OFFSET 0.000000 8.688499 0.000000
									}
								}
							}
							JOINT newVegas:Right_Sleeve
							{
								OFFSET -0.267448 -0.649994 0.577675
								CHANNELS 3 Xrotation Yrotation Zrotation
								End Site
								{
									OFFSET 0.000000 15.991302 0.000000
								}
							}
						}
						JOINT newVegas:Right_CapeA
						{
							OFFSET -5.115540 -8.608795 -10.395824
							CHANNELS 3 Xrotation Yrotation Zrotation
							JOINT newVegas:Right_CapeA1
							{
								OFFSET 0.000000 -8.688499 0.000000
								CHANNELS 3 Xrotation Yrotation Zrotation
								End Site
								{
									OFFSET 0.000000 8.688499 0.000000
								}
							}
						}
						JOINT newVegas:Right_CapeB
						{
							OFFSET -26.118187 -8.608795 -7.079266
							CHANNELS 3 Xrotation Yrotation Zrotation
							JOINT newVegas:Right_CapeB1
							{
								OFFSET 0.000000 -8.688499 0.000000
								CHANNELS 3 Xrotation Yrotation Zrotation
								End Site
								{
									OFFSET 0.000000 8.688499 0.000000
								}
							}
						}
					}
				}
				JOINT newVegas:Left_Collar
				{
					OFFSET 18.625099 8.655502 8.828100
					CHANNELS 3 Xrotation Yrotation Zrotation
					JOINT newVegas:Left_Collar1
					{
						OFFSET 14.783401 10.540405 -1.259500
						CHANNELS 3 Xrotation Yrotation Zrotation
						End Site
						{
							OFFSET 0.000000 18.199875 0.000000
						}
					}
				}
				JOINT newVegas:Collar_Back
				{
					OFFSET 0.000000 15.630707 -20.132601
					CHANNELS 3 Xrotation Yrotation Zrotation
					End Site
					{
						OFFSET 0.000000 22.523010 0.000000
					}
				}
				JOINT newVegas:Left_Peck
				{
					OFFSET 17.239599 -5.132599 25.482599
					CHANNELS 3 Xrotation Yrotation Zrotation
					End Site
					{
						OFFSET 0.000000 22.523010 0.000000
					}
				}
				JOINT newVegas:Right_Peck
				{
					OFFSET -17.239599 -5.132202 25.482599
					CHANNELS 3 Xrotation Yrotation Zrotation
					End Site
					{
						OFFSET 0.000000 22.523010 0.000000
					}
				}
				JOINT newVegas:Right_Collar
				{
					OFFSET -18.625099 8.655792 8.828100
					CHANNELS 3 Xrotation Yrotation Zrotation
					JOINT newVegas:Right_Collar1
					{
						OFFSET -14.783401 10.539993 -1.259500
						CHANNELS 3 Xrotation Yrotation Zrotation
						End Site
						{
							OFFSET 0.000000 18.199631 0.000000
						}
					}
				}
			}
		}
		JOINT newVegas:Belly
		{
			OFFSET 0.000000 -6.540398 9.014299
			CHANNELS 3 Xrotation Yrotation Zrotation
			End Site
			{
				OFFSET 0.000000 11.566666 0.000000
			}
		}
	}
	JOINT newVegas:ElvisFacialAnim_Joint
	{
		OFFSET 1.000000 -95.330101 -8.825800
		CHANNELS 3 Xrotation Yrotation Zrotation
		End Site
		{
			OFFSET 0.000000 35.315800 0.000000
		}
	}
}
MOTION
Frames: 4
Frame Time: 0.033333
-0.316862 89.827232 3.061323 5.048375 -15.557749 0.313350 0.000000 -0.000001 0.000000 -39.841252 1.353301 11.205645 35.806597 4.186836 1.508219 0.118337 0.612145 -7.710156 -0.000000 -0.000000 -0.000000 -0.000000 -0.000001 0.000001 -13.249700 -10.206197 -14.508314 32.034653 -5.746343 1.668706 -20.404454 -3.421259 13.642592 0.000000 0.000000 -0.000000 -0.000000 0.000000 -0.000002 23.100221 4.232154 -0.406396 3.699068 1.240288 -0.840912 3.692186 1.313818 -0.845959 -2.535799 0.264609 0.436106 -2.535795 0.264608 0.436108 -0.000001 -0.000000 -0.000000 -2.535782 0.264611 0.436109 -2.535720 0.264605 0.436109 0.000000 -0.000000 0.000000 -0.000001 -0.000000 -0.000000 7.812708 -20.949869 9.748542 -32.822635 -13.211417 -85.330093 -2.142427 -43.211704 0.633131 -23.113405 -10.866542 -12.598977 -7.471941 1.860678 -7.166918 30.987021 27.310551 -4.510897 -0.000000 -0.000005 -0.000002 -4.707387 11.366705 -75.214460 -0.816382 3.073986 -46.874642 -0.000000 -0.000003 0.000001 1.623338 16.580931 -84.691286 0.018002 0.022034 -72.884853 -0.000002 -0.000002 -0.000001 -6.443154 23.132625 -76.210158 0.012873 0.975916 -51.002993 0.000001 -0.000001 -0.000001 -17.098988 22.128963 -43.123171 0.019715 0.027000 -78.662886 0.000001 -0.000003 -0.000001 -0.000001 -0.000001 0.000000 -0.000001 -0.000001 0.000000 -0.000002 -0.000001 0.000001 0.000001 -0.000001 -0.000000 0.000001 0.000000 0.000000 0.000001 -0.000001 -0.000000 -0.000001 0.000000 -0.000000 13.916965 27.241166 -23.493042 -41.046589 17.078120 84.595151 -4.307212 57.763647 -9.757181 -27.885504 16.096558 8.636259 9.347176 2.810542 -11.364522 16.169040 -43.266018 15.843563 0.000000 -0.000002 -0.000001 17.076801 -0.396565 31.924335 -0.204392 -0.284207 112.811564 0.000000 0.000000 -0.000001 9.205462 -5.035884 102.738087 0.014977 -0.019199 61.018526 0.000000 0.000002 0.000001 5.569133 -8.935213 107.329094 0.547969 -0.005781 41.263697 -0.000000 -0.000003 0.000000 6.511267 -17.148269 98.228038 0.007400 -0.015729 43.845720 -0.000000 -0.000000 -0.000001 -0.000001 0.000003 0.000001 -0.000000 0.000001 0.000001 -0.000001 0.000002 0.000002 0.000001 0.000000 0.000001 0.000001 0.000000 0.000001 0.000001 0.000000 0.000001 0.000001 -0.000000 0.000001 0.000001 0.000001 -0.000000 0.000001 0.000001 -0.000000 0.000001 0.000001 -0.000000 0.000001 0.000001 -0.000000 0.000001 0.000001 -0.000000 0.000001 0.000001 -0.000000 0.000001 0.000001 -0.000000 -0.000001 -0.000001 0.000000 0.000000 -0.000001 0.000000 
-0.500161 89.677773 3.795067 3.997178 -15.746542 -0.409233 0.000000 -0.000000 0.000000 -39.813101 1.307389 11.765935 38.999489 4.424203 1.561730 -1.572966 0.939400 -7.745590 0.000000 -0.000000 -0.000000 -0.000000 -0.000000 -0.000000 -11.654954 -10.826829 -13.672946 31.980291 -7.136974 0.490795 -20.196152 -3.544358 15.194676 0.000000 -0.000005 0.000000 0.000000 -0.000000 -0.000001 21.993935 4.198149 0.248026 3.371012 1.169738 -0.813711 3.365467 1.235475 -0.835567 -1.754630 0.387237 0.214698 -1.754641 0.387240 0.214695 -0.000001 0.000001 -0.000001 -1.754560 0.387236 0.214697 -1.754697 0.387242 0.214696 -0.000002 -0.000000 0.000000 -0.000001 0.000001 -0.000000 6.405098 -22.301095 3.597541 -33.539835 -13.875867 -80.617331 -1.182011 -38.060215 -1.665560 -25.379506 -11.311823 -12.022906 9.751465 -9.932599 5.000258 6.404657 27.885883 1.430233 -0.000002 0.000001 -0.000008 -5.441097 -7.860316 -37.440334 -1.127069 3.296792 -35.786479 -0.000004 -0.000001 -0.000002 -2.783233 8.240493 -45.776645 0.008828 0.016736 -53.637247 -0.000000 -0.000003 -0.000002 -0.992532 14.529774 -41.892033 0.352530 0.813948 -51.556313 0.000002 0.000001 0.000001 -3.640668 23.632118 -28.359799 0.015418 0.026170 -65.373824 -0.000000 -0.000002 0.000001 0.000003 -0.000001 0.000002 0.000003 -0.000001 0.000002 0.000002 -0.000001 0.000003 0.000002 -0.000001 0.000001 0.000002 -0.000001 0.000001 0.000002 -0.000001 0.000001 0.000000 -0.000001 0.000001 12.368473 27.397530 -18.217890 -36.960121 15.485972 80.938602 -3.143364 57.773517 -7.024211 -26.074512 14.247819 8.891421 9.347178 2.810542 -11.364520 16.169042 -43.266011 15.843566 -0.000001 -0.000000 -0.000001 17.076798 -0.396568 31.924342 -0.204393 -0.284207 112.811564 0.000000 -0.000000 -0.000000 9.205459 -5.035888 102.738087 0.014976 -0.019199 61.018526 -0.000000 0.000002 0.000001 5.569133 -8.935218 107.329094 0.547969 -0.005781 41.263693 -0.000000 0.000001 0.000000 6.511263 -17.148276 98.228038 0.007403 -0.015726 43.845716 0.000000 0.000002 0.000000 -0.000000 0.000003 0.000001 0.000000 -0.000001 0.000001 -0.000000 0.000003 -0.000000 0.000003 -0.000001 0.000000 0.000003 0.000000 0.000000 0.000003 -0.000001 0.000000 0.000003 -0.000000 0.000000 0.000004 -0.000000 0.000000 0.000004 -0.000000 0.000000 0.000004 -0.000000 0.000000 0.000004 -0.000000 0.000000 0.000004 -0.000000 0.000000 0.000004 -0.000000 0.000000 0.000004 -0.000000 0.000000 -0.000000 0.000001 -0.000000 0.000000 -0.000000 0.000000 
-0.683820 89.359322 4.517061 2.399839 -15.841442 -1.580163 -0.000000 -0.000000 -0.000000 -39.991915 0.644992 12.478534 43.350552 5.066334 1.681751 -3.316020 1.251787 -7.943385 0.000000 -0.000000 0.000000 -0.000001 0.000000 0.000002 -9.568479 -11.504207 -12.620004 32.282278 -8.464758 -0.746192 -20.138987 -3.711496 16.954280 0.000000 -0.000004 0.000000 0.000001 -0.000000 0.000001 21.658829 4.020156 0.957707 3.084948 1.069224 -0.762283 3.081017 1.130348 -0.787925 -0.870598 0.525075 -0.032167 -0.870572 0.525078 -0.032172 -0.000002 -0.000000 0.000000 -0.870522 0.525072 -0.032168 -0.870590 0.525090 -0.032171 -0.000000 -0.000000 0.000000 -0.000002 -0.000000 0.000000 4.754550 -23.243383 -2.927011 -34.510740 -14.852494 -75.101775 -0.048572 -32.098962 -4.682154 -26.325972 -11.932226 -10.268587 28.206405 -16.585687 19.753913 -15.719865 26.239043 2.803928 -0.000000 -0.000005 0.000000 12.244446 -16.773150 2.172121 -1.540800 3.591598 -25.493457 0.000001 0.000002 0.000004 0.803535 4.203536 -10.355234 0.003034 0.008453 -35.764438 0.000000 -0.000000 0.000000 5.990782 19.516171 -12.389277 0.665085 0.657760 -52.070039 0.000001 -0.000001 0.000000 6.823281 32.453169 -17.964729 0.011395 0.025068 -53.033957 0.000000 -0.000002 -0.000001 -0.000002 0.000001 0.000001 -0.000002 0.000001 0.000001 -0.000003 0.000001 0.000001 0.000000 -0.000001 -0.000000 0.000000 -0.000001 -0.000000 0.000000 -0.000001 -0.000000 -0.000002 -0.000001 -0.000000 10.957300 27.249876 -13.341457 -33.874777 14.022373 77.695676 -2.475872 56.995613 -4.760708 -24.036959 12.728458 9.936969 9.347178 2.810542 -11.364524 16.169044 -43.266011 15.843556 -0.000000 -0.000004 -0.000001 17.076798 -0.396567 31.924342 -0.204395 -0.284206 112.811564 0.000001 -0.000001 0.000000 9.205459 -5.035886 102.738080 0.014975 -0.019195 61.018533 0.000000 0.000000 -0.000000 5.569133 -8.935214 107.329087 0.547972 -0.005782 41.263693 0.000000 -0.000003 -0.000000 6.511260 -17.148271 98.228038 0.007403 -0.015733 43.845723 0.000000 0.000003 -0.000001 -0.000001 -0.000006 0.000001 0.000001 -0.000004 -0.000001 -0.000001 -0.000006 0.000002 -0.000001 0.000000 0.000000 -0.000001 0.000000 0.000000 -0.000001 0.000000 0.000000 -0.000001 -0.000000 0.000000 0.000002 -0.000000 0.000001 0.000002 -0.000000 0.000001 0.000002 -0.000000 0.000001 0.000002 -0.000000 0.000001 0.000002 -0.000000 0.000001 0.000002 -0.000000 0.000001 0.000002 -0.000000 0.000001 -0.000001 0.000001 -0.000000 -0.000000 -0.000000 -0.000000 
-0.703635 88.890839 4.853531 1.251419 -16.206123 -2.403990 -0.000000 0.000000 0.000000 -40.587060 -0.105472 12.861309 47.169655 6.301940 1.871812 -4.499908 1.496774 -8.322057 0.000000 -0.000000 -0.000000 0.000001 -0.000000 -0.000000 -9.766520 -10.786881 -11.648049 34.833815 -10.564426 -2.550928 -19.841734 -3.933012 19.181017 0.000000 -0.000000 0.000000 -0.000000 0.000004 -0.000003 22.464574 3.760240 1.097613 2.718620 1.006368 -0.717723 2.715210 1.064873 -0.747886 -0.042178 0.689069 -0.290510 -0.042182 0.689073 -0.290510 -0.000001 -0.000001 0.000000 -0.042169 0.689074 -0.290511 -0.042091 0.689065 -0.290511 -0.000001 0.000000 -0.000000 -0.000001 -0.000001 0.000000 2.944655 -23.660014 -10.079424 -35.714301 -16.314595 -68.551706 1.502608 -27.214243 -7.701393 -25.407651 -11.841837 -7.885198 38.882901 -17.950096 28.650680 -27.090962 25.417407 1.632153 0.000002 0.000002 -0.000001 24.511107 -12.934719 24.042959 -1.827994 3.771572 -19.937423 0.000000 -0.000002 -0.000000 3.535721 5.183112 8.729493 0.001428 0.003064 -26.115640 0.000003 -0.000000 0.000005 6.519333 26.367196 2.716685 0.832665 0.571140 -52.347335 -0.000003 0.000001 0.000001 11.181267 39.322717 -14.138129 0.009183 0.024338 -46.372190 0.000002 -0.000007 0.000001 0.000001 -0.000004 -0.000000 0.000001 -0.000004 -0.000000 0.000000 -0.000004 0.000000 -0.000001 -0.000001 -0.000000 -0.000002 -0.000002 -0.000000 -0.000001 -0.000001 -0.000000 -0.000003 -0.000000 0.000000 10.118941 28.541668 -10.471511 -32.502910 13.175493 74.291052 -2.511867 51.438841 -3.594226 -23.359257 15.241985 12.611721 9.347178 2.810541 -11.364520 16.169040 -43.266011 15.843565 0.000002 -0.000003 0.000003 17.076801 -0.396566 31.924342 -0.204393 -0.284204 112.811564 0.000001 -0.000003 -0.000000 9.205463 -5.035884 102.738087 0.014975 -0.019196 61.018533 0.000001 -0.000000 -0.000001 5.569134 -8.935216 107.329094 0.547965 -0.005780 41.263690 -0.000000 -0.000003 -0.000001 6.511264 -17.148272 98.228045 0.007399 -0.015733 43.845716 0.000001 -0.000002 0.000001 0.000001 0.000002 0.000002 0.000001 0.000002 -0.000000 0.000001 0.000002 0.000001 0.000000 -0.000001 -0.000000 0.000000 -0.000001 -0.000000 0.000000 -0.000001 -0.000000 0.000000 -0.000001 -0.000000 -0.000001 -0.000000 0.000000 -0.000001 -0.000000 0.000000 -0.000001 -0.000000 0.000000 -0.000001 -0.000000 0.000000 -0.000001 -0.000000 0.000000 -0.000001 -0.000000 0.000000 -0.000001 -0.000000 0.000000 -0.000002 0.000001 -0.000000 -0.000000 0.000000 0.000000 
